<?xml version="1.0" encoding="UTF-8"?><svg id="Layer_1" xmlns="http://www.w3.org/2000/svg" viewBox="0 0 813.59 295.68"><defs><style>.cls-1{fill:#6dc900;}.cls-2{isolation:isolate;}.cls-3{fill:#1157d0;}.cls-4{fill:#2d3a65;fill-rule:evenodd;}</style></defs><g class="cls-2"><path class="cls-3" d="M241.23,287.4c-1.75,1.75-3.75,3.31-5.98,4.67-2.23,1.36-4.49,2.04-6.77,2.04-2.81,0-4.93-.7-6.38-2.1-1.45-1.4-2.65-2.85-3.62-4.34l-10.39-16.3-21.56,23.93c-.61,.44-1.23,.44-1.84,0l-5.39-5.79c-.53-.44-.53-1.01,0-1.71l23.01-25.5-9.73-15.12c-.97-1.49-1.8-2.52-2.5-3.09-.7-.57-1.45-.85-2.23-.85-1.49,0-3.02,.66-4.6,1.97-.79,.61-1.4,.53-1.84-.26l-3.02-4.08c-.35-.7-.31-1.27,.13-1.71,1.75-1.66,3.75-3.2,5.98-4.6,2.23-1.4,4.49-2.1,6.77-2.1,1.4,0,2.61,.2,3.62,.59,1.01,.39,1.88,.92,2.63,1.58,.74,.66,1.4,1.38,1.97,2.17,.57,.79,1.12,1.53,1.64,2.24l9.2,14.33,19.72-21.95c.61-.44,1.23-.44,1.84,0l5.39,5.78c.53,.44,.53,1.01,0,1.71l-21.17,23.53,10.91,16.7c.96,1.49,1.82,2.56,2.56,3.22,.74,.66,1.51,.99,2.3,.99,1.58,0,3.11-.66,4.6-1.97,.79-.61,1.4-.53,1.84,.26l3.02,4.21-.13,1.58Z"/><path class="cls-3" d="M302.42,276.49c-1.36,3.94-3.35,7.34-5.98,10.19-2.63,2.85-5.81,5.06-9.53,6.64-3.73,1.58-7.95,2.37-12.69,2.37s-8.96-.79-12.69-2.37c-3.73-1.58-6.9-3.79-9.53-6.64-2.63-2.85-4.62-6.24-5.98-10.19-1.36-3.94-2.04-8.33-2.04-13.15s.68-9.22,2.04-13.21c1.36-3.99,3.35-7.38,5.98-10.19,2.63-2.8,5.8-5,9.53-6.57,3.72-1.58,7.95-2.37,12.69-2.37s8.96,.79,12.69,2.37c3.72,1.58,6.9,3.77,9.53,6.57,2.63,2.81,4.62,6.2,5.98,10.19,1.36,3.99,2.04,8.39,2.04,13.21s-.68,9.2-2.04,13.15Zm-11.9-21.73c-.7-2.71-1.77-5.09-3.22-7.14-1.45-2.05-3.24-3.69-5.39-4.92-2.15-1.22-4.71-1.84-7.69-1.84s-5.54,.61-7.69,1.84c-2.15,1.22-3.94,2.86-5.39,4.92-1.45,2.05-2.52,4.44-3.22,7.14-.7,2.71-1.05,5.55-1.05,8.52s.35,5.68,1.05,8.39c.7,2.71,1.77,5.09,3.22,7.14,1.45,2.05,3.24,3.69,5.39,4.92,2.15,1.22,4.71,1.83,7.69,1.83s5.54-.61,7.69-1.83c2.15-1.22,3.94-2.86,5.39-4.92s2.52-4.43,3.22-7.14c.7-2.71,1.05-5.5,1.05-8.39s-.35-5.81-1.05-8.52Z"/><path class="cls-3" d="M356.52,244.28c-.18,.44-.44,.72-.79,.85-.35,.13-.7,.07-1.05-.2-.44-.35-1.31-.83-2.63-1.45-1.31-.61-2.94-.92-4.86-.92s-3.53,.46-5.06,1.38c-1.53,.92-2.87,2.21-4.01,3.88-1.75,2.63-3.13,5.78-4.14,9.47-1.01,3.68-1.51,7.49-1.51,11.44v24.06c0,.88-.39,1.31-1.18,1.31h-9.6c-.88,0-1.31-.44-1.31-1.31v-46.93c0-1.49-.2-2.48-.59-2.96-.39-.48-.94-.72-1.64-.72-1.58,0-2.98,.53-4.21,1.58-.35,.26-.7,.35-1.05,.26-.35-.09-.61-.31-.79-.66l-2.63-4.38c-.18-.27-.22-.58-.13-.93,.09-.36,.22-.62,.39-.8,1.93-1.42,3.94-2.58,6.05-3.46,2.1-.89,4.16-1.33,6.18-1.33,2.98,0,5.19,.78,6.64,2.33,1.45,1.55,2.39,3.97,2.83,7.26,1.93-3.46,4.36-6.06,7.3-7.79,2.94-1.73,5.94-2.59,9-2.59,2.89,0,5.21,.36,6.97,1.06,1.75,.71,3.16,1.42,4.21,2.13,.7,.36,.88,.84,.53,1.46l-2.89,7.96Z"/><path class="cls-3" d="M428.3,288.32c-.53,.53-1.23,1.12-2.1,1.77-.88,.66-1.91,1.27-3.09,1.84-1.18,.57-2.5,1.07-3.94,1.51-1.45,.44-3.05,.66-4.8,.66-2.1,0-4.08-.57-5.92-1.71-1.84-1.14-3.42-2.98-4.73-5.52l-13.28-26.42-10.52,7.1v25.24c0,.88-.44,1.31-1.31,1.31h-9.86c-.88,0-1.31-.44-1.31-1.31v-86.24c0-1.4-.18-2.37-.53-2.89-.35-.53-.92-.79-1.71-.79s-1.56,.18-2.3,.53c-.75,.35-1.43,.75-2.04,1.18-.35,.26-.7,.35-1.05,.26-.35-.09-.61-.31-.79-.66l-2.76-4.47c-.44-.61-.31-1.18,.39-1.71,1.93-1.4,4.01-2.56,6.24-3.48,2.23-.92,4.36-1.38,6.38-1.38,3.86,0,6.59,1.14,8.22,3.42,1.62,2.28,2.43,4.86,2.43,7.76v51.27l34.84-24.58c.79-.35,1.4-.22,1.84,.39l4.34,6.84c.35,.79,.26,1.36-.26,1.71l-19.85,13.28,14.86,28c.7,1.23,1.29,2.02,1.78,2.37,.48,.35,1.07,.53,1.77,.53s1.45-.26,2.24-.79c.79-.53,1.49-1.01,2.1-1.45,.79-.44,1.36-.35,1.71,.26l3.02,4.34v1.84Z"/><path class="cls-3" d="M442.76,268.07c.26,2.03,.81,4.09,1.64,6.16,.83,2.07,1.99,3.95,3.48,5.63,1.49,1.68,3.35,3.05,5.59,4.11,2.24,1.06,4.88,1.59,7.95,1.59,4.03,0,7.54-.46,10.52-1.38,2.98-.92,5.52-1.95,7.62-3.09,.44-.26,.85-.26,1.25,0,.39,.26,.59,.66,.59,1.18v8.09c0,.61-.22,.99-.66,1.17-2.19,1.04-4.82,1.99-7.89,2.86-3.07,.87-7.32,1.3-12.75,1.3-5.08,0-9.53-.85-13.34-2.56-3.81-1.71-6.97-4.01-9.46-6.9-2.5-2.89-4.38-6.31-5.65-10.25-1.27-3.94-1.91-8.15-1.91-12.62,0-4.82,.68-9.2,2.04-13.15,1.36-3.94,3.29-7.34,5.79-10.19,2.5-2.85,5.56-5.06,9.2-6.64,3.64-1.58,7.69-2.37,12.16-2.37,8.76,0,15.47,2.7,20.11,8.08,4.64,5.39,6.97,13.21,6.97,23.47v4.21c0,.88-.44,1.31-1.31,1.31h-41.94Zm5.06-22.68c-2.5,3.11-4.1,7.43-4.8,12.95h30.11c-.26-5.52-1.54-9.84-3.81-12.95-2.28-3.11-5.83-4.67-10.65-4.67s-8.35,1.56-10.85,4.67Z"/><path class="cls-3" d="M508.49,268.07c.26,2.03,.81,4.09,1.64,6.16,.83,2.07,1.99,3.95,3.48,5.63,1.49,1.68,3.35,3.05,5.59,4.11,2.23,1.06,4.88,1.59,7.95,1.59,4.03,0,7.54-.46,10.52-1.38,2.98-.92,5.52-1.95,7.62-3.09,.44-.26,.85-.26,1.25,0,.39,.26,.59,.66,.59,1.18v8.09c0,.61-.22,.99-.66,1.17-2.19,1.04-4.82,1.99-7.89,2.86-3.07,.87-7.32,1.3-12.75,1.3-5.08,0-9.53-.85-13.34-2.56s-6.97-4.01-9.46-6.9c-2.5-2.89-4.38-6.31-5.65-10.25-1.27-3.94-1.91-8.15-1.91-12.62,0-4.82,.68-9.2,2.04-13.15,1.36-3.94,3.29-7.34,5.78-10.19,2.5-2.85,5.56-5.06,9.2-6.64,3.64-1.58,7.69-2.37,12.16-2.37,8.76,0,15.47,2.7,20.11,8.08,4.64,5.39,6.97,13.21,6.97,23.47v4.21c0,.88-.44,1.31-1.31,1.31h-41.94Zm5.06-22.68c-2.5,3.11-4.1,7.43-4.8,12.95h30.1c-.26-5.52-1.53-9.84-3.81-12.95-2.28-3.11-5.83-4.67-10.65-4.67s-8.35,1.56-10.85,4.67Z"/></g><g class="cls-2"><path class="cls-1" d="M629.23,234.89l7.4,.15h1.48c-3.25,2.66-7.25,9.4-11.99,20.2-4.74,10.8-7.1,18.67-7.1,23.6,0,2.57,.89,3.85,2.66,3.85,5.72,0,13.02-8.43,21.9-25.3,.39-.69,.74-1.04,1.04-1.04,.59,0,.89,.91,.89,2.74s-.5,3.58-1.48,5.25c-12.13,20.42-22.29,30.63-30.48,30.63-5.33,0-7.99-4.09-7.99-12.28,0-6.12,1.04-12.13,3.11-18.05-11.25,19.93-21.65,29.89-31.22,29.89-6.61,0-9.91-4.54-9.91-13.61,0-6.9,1.5-13.91,4.51-21.01,3.01-7.1,7.32-13.14,12.95-18.13,5.62-4.98,11.79-7.47,18.5-7.47,3.16,0,6.12,.72,8.88,2.15,2.76,1.43,4.59,3.72,5.47,6.88,1.08-2.27,2.76-4.24,5.03-5.92,2.27-1.68,4.39-2.52,6.36-2.52Zm-12.28,9.77c-.99-3.16-3.31-4.74-6.95-4.74-6.51,0-12.83,4.51-18.94,13.54-6.12,9.03-9.17,17.09-9.17,24.19,0,3.06,1.18,4.59,3.55,4.59,2.56,0,5.57-1.6,9.03-4.81,3.45-3.21,6.56-6.98,9.32-11.32,6.12-9.67,10.51-16.82,13.17-21.46Z"/><path class="cls-1" d="M694.92,234.45l7.1,.15c1.48,0,2.42-.05,2.81-.15-2.76,1.88-6.73,8.41-11.91,19.61-5.18,11.2-7.77,19.26-7.77,24.19,0,2.96,.98,4.44,2.96,4.44,1.28,0,3.03-.84,5.25-2.52,2.22-1.68,4.12-3.53,5.7-5.55,1.58-2.02,3.28-4.51,5.1-7.47,1.82-2.96,3.4-5.52,4.74-7.69,1.33-2.17,2.09-3.26,2.29-3.26,.59,0,.89,.94,.89,2.81s-.54,3.65-1.63,5.33c-12.23,20.42-22.44,30.63-30.63,30.63-5.53,0-8.29-4.09-8.29-12.28,0-2.56,.2-5.03,.59-7.4-9.27,13.12-18.1,19.68-26.49,19.68-2.47,0-4.46-1.04-5.99-3.11s-2.29-5.13-2.29-9.17,1.43-10.73,4.29-20.05c2.86-9.32,6.36-16.99,10.51-23.01,.99-1.48,2.05-2.39,3.18-2.74,1.13-.34,3.28-.52,6.44-.52h7.1c-2.47,3.36-5.13,7.89-7.99,13.61-6.51,13.52-9.77,23.43-9.77,29.74,0,3.75,1.35,5.62,4.07,5.62s5.94-2.61,9.69-7.84c3.75-5.23,7.77-12.01,12.06-20.35,4.29-8.33,6.78-13.04,7.47-14.13,3.65-5.72,7.15-8.58,10.51-8.58Z"/><path class="cls-1" d="M751,209.3c-4.83,3.35-10.26,11.94-16.28,25.75h14.95l.15,.15c0,.5-.54,1.36-1.63,2.59-1.09,1.23-2.02,1.85-2.81,1.85h-12.73c-7.79,19.33-11.69,31.76-11.69,37.29,0,3.75,1.18,5.62,3.55,5.62,3.45,0,7.5-2.96,12.13-8.88,1.08-1.28,2.52-3.45,4.29-6.51,4.54-7.3,6.9-10.95,7.1-10.95,.59,0,.89,.79,.89,2.37-.1,3.75-4.19,11.05-12.28,21.9-2.66,3.55-5.87,6.86-9.62,9.91-3.75,3.06-7.15,4.59-10.21,4.59-5.62,0-8.43-3.94-8.43-11.84,0-6.61,1.58-14.21,4.73-22.79v-.15c-1.88,3.45-3.48,6.02-4.81,7.7-1.33,1.68-2.1,2.51-2.29,2.51-.4,0-.59-.61-.59-1.85s.67-3.23,2-5.99c1.33-2.76,3.16-6.36,5.47-10.8,2.32-4.44,4.22-8.48,5.7-12.13h-9.91c-.29,0-.44-.22-.44-.67s.37-1.21,1.11-2.29c.74-1.08,1.31-1.63,1.7-1.63h11.25c7.1-17.07,14.3-25.6,21.6-25.6,4.24,0,6.61-.05,7.1-.15Z"/><path class="cls-1" d="M812.11,264.34c-12.13,20.42-22.39,30.63-30.78,30.63-5.82,0-8.73-3.35-8.73-10.06,0-7.79,3.11-18.89,9.32-33.29,1.38-3.65,2.07-6.16,2.07-7.55,0-1.97-.89-2.96-2.66-2.96-1.18,0-3.18,.69-5.99,2.07-2.81,1.38-5.5,3.4-8.06,6.07-2.57,2.66-4.71,5.75-6.44,9.25-1.73,3.5-3.11,6.54-4.14,9.1-1.04,2.57-2.1,5.7-3.18,9.4-1.09,3.7-2.05,6.71-2.88,9.03-.84,2.32-1.7,5.01-2.59,8.06h-14.35c2.66-6.81,6.49-17.68,11.47-32.63,4.98-14.94,9.25-26.68,12.8-35.22,3.55-8.53,7.03-15.73,10.43-21.6,3.4-5.87,7.3-10.78,11.69-14.72,4.39-3.94,9.03-5.92,13.91-5.92s7.32,2.32,7.32,6.96c0,3.25-1.33,7.55-4,12.87-5.72,11.25-15.29,24.27-28.71,39.06,5.33-3.85,9.54-6.36,12.65-7.55,3.11-1.18,6.09-1.78,8.95-1.78,5.62,0,8.43,2.47,8.43,7.4,0,1.97-.35,3.8-1.04,5.48-.69,1.68-1.46,3.6-2.29,5.77-.84,2.17-1.53,3.95-2.07,5.33-.54,1.38-1.26,3.25-2.15,5.62-.89,2.37-1.58,4.39-2.07,6.07-1.28,4.14-1.92,7.45-1.92,9.91s.84,3.7,2.52,3.7c5.92,0,13.32-8.58,22.2-25.75,.3-.69,.67-1.04,1.11-1.04s.67,.91,.67,2.74-.49,3.68-1.48,5.55Zm-17.91-76.65c-3.45,0-7.97,5.48-13.54,16.42-5.57,10.95-11.02,23.53-16.35,37.73,13.51-15.88,22.74-28.9,27.67-39.06,2.76-6.21,4.14-10.28,4.14-12.21s-.64-2.89-1.92-2.89Z"/></g><g><path class="cls-4" d="M165.42,162.45l2.38-.03-2.38,10.07,253.85-2.65-70.09-83.67-.03-.04-10.15-12.12-2.79-3.35c-1.51-1.43-3.86-1.6-5.51-.27h0c-1.71,1.37-2.01,3.81-.82,5.61l.19,.26,5.21,6.72c12.47,15.68,41.23,50.52,55.48,67.75-6.09-.01-225.17-.46-222.79,.57l-2.55,11.15Z"/><path class="cls-4" d="M158.58,35.47c47.55,67.15-20.05,198.33-94.39,200.04-2.81,.06-5.49-.04-8.08-.26-.55-.11-1.09-.22-1.62-.34l-.33,.16C-37.16,224.82,15.81,39.75,108.02,34.67c35.78-1.97,34.8,36.81,27.66,45.25,7.8-9.21,10.87-55.62-28.19-53.46C6.19,32.05-47.33,245.41,55.29,254.64c4.89,.95,10.19,1.39,15.9,1.26,81.14-1.86,152.87-145.04,103.54-221.95C161.09,12.68,145.33,3.62,129.67,1.62l.32,.49C86.66-9.8,41.45,38.6,41.45,38.6c0,0,69.57-70.28,117.13-3.13Z"/><path class="cls-4" d="M143.99,5.58S125.8-3.04,105.17,1.14l11.86,4.06,26.96,.38Z"/><path class="cls-4" d="M329.61,85.89h.02c.29,.04,.84,.15,1.35,.38,.4,.18,.77,.44,1.03,.8l.02,.03c.3,.47,.47,.9,.53,1.3,.15,.99-.29,1.73-1.1,2.27-.63,.42-1.49,.7-2.41,.87-1.94,.36-4.26,.29-5.05,.24-.79-.05-2.44-.16-3.91,.06-1.25,.19-2.39,.6-2.62,1.47-.27,1.04,.2,4.01,.79,7.78,.74,4.67,1.66,10.53,1.6,15.85-.01,.93-.17,1.74-.45,2.43-.84,2.1-2.71,3.16-5.09,3.54-2.18,.34-4.82,.09-7.45-.47-4.44-.95-8.96-2.78-11.27-4.03-2.57-1.4-4.5-2.29-6.25-2.63-1.69-.32-3.3-.14-5.31,.57-1.33,.47-2.38,3.73-3.14,7.77-1.26,6.65-1.59,15.2-1.3,17.96,.2,1.95-.26,3.14-.95,3.77-.37,.33-.8,.52-1.24,.58-.42,.06-.85,0-1.25-.15-.87-.32-1.63-1.09-1.82-2.02-.22-1.1-.39-7.95,0-15.09,.24-4.47,.7-9.08,1.48-12.52,.22-.98,.57-1.84,1.03-2.59,1.3-2.13,3.4-3.28,5.85-3.76,2.33-.45,4.96-.28,7.46,.22,2.83,.57,5.52,1.59,7.42,2.62,2.67,1.44,6.52,2.63,9.91,3.26,3.18,.59,5.82,.74,6.34,.17,.53-.58-.28-5.82-1.17-11.55-.8-5.16-1.66-10.69-1.55-14.06,.12-3.55,3.74-4.97,7.93-5.4,3.79-.39,8.08,0,10.32,.29h.07s.01,0,.01,0h.02l.12,.02h.03Z"/></g></svg>