<svg id="Layer_2" data-name="Layer 2" xmlns="http://www.w3.org/2000/svg" viewBox="0 0 468.22 186.43"><defs><style>.cls-1{fill:#2d3a65;fill-rule:evenodd;}.cls-2{fill:#1157d1;}.cls-3{fill:#df2c09;}</style></defs><path class="cls-1" d="M91,96.4h1.13L91,101.16l120.26-1.25L178,60.27v0l-4.81-5.74-1.33-1.59a2,2,0,0,0-2.61-.13h0a2,2,0,0,0-.38,2.66l.09.13,2.47,3.18c5.9,7.43,19.53,23.93,26.28,32.1-2.88,0-106.67-.22-105.55.26Z" transform="translate(-12.59 -19.44)"/><path class="cls-1" d="M87.72,36.25c22.52,31.81-9.5,94-44.72,94.77a34.17,34.17,0,0,1-3.83-.13l-.76-.16-.16.08C-5,126,20.08,38.28,63.77,35.87c16.95-.93,16.48,17.44,13.1,21.44C80.56,52.94,82,31,63.51,32c-48,2.65-73.34,103.73-24.73,108.1a35.42,35.42,0,0,0,7.54.6C84.76,139.79,118.74,72,95.37,35.53,88.91,25.45,81.44,21.16,74,20.21l.15.23C53.64,14.8,32.23,37.73,32.23,37.73S65.19,4.44,87.72,36.25Z" transform="translate(-12.59 -19.44)"/><path class="cls-1" d="M80.81,22.09A32.38,32.38,0,0,0,62.42,20L68,21.91Z" transform="translate(-12.59 -19.44)"/><path class="cls-1" d="M168.74,60.13h0a2.44,2.44,0,0,1,.64.18,1.15,1.15,0,0,1,.49.38h0a1.71,1.71,0,0,1,.25.62,1,1,0,0,1-.52,1.07,3.07,3.07,0,0,1-1.14.41,10.6,10.6,0,0,1-2.39.11,9.8,9.8,0,0,0-1.85,0c-.59.09-1.14.28-1.25.7a15.54,15.54,0,0,0,.38,3.69,46.44,46.44,0,0,1,.76,7.5,3.15,3.15,0,0,1-.22,1.16,2.84,2.84,0,0,1-2.41,1.67,10.33,10.33,0,0,1-3.53-.22,22.65,22.65,0,0,1-5.34-1.91,10.57,10.57,0,0,0-3-1.25,4.57,4.57,0,0,0-2.51.27c-.63.23-1.13,1.77-1.49,3.69a39.09,39.09,0,0,0-.62,8.5,2.05,2.05,0,0,1-.45,1.79,1.07,1.07,0,0,1-.59.27,1.19,1.19,0,0,1-.59-.07,1.35,1.35,0,0,1-.86-.95,53.54,53.54,0,0,1,0-7.15,37.59,37.59,0,0,1,.7-5.93,4.22,4.22,0,0,1,.49-1.23,4,4,0,0,1,2.77-1.78,9.38,9.38,0,0,1,3.53.11,13.13,13.13,0,0,1,3.52,1.24,17.12,17.12,0,0,0,4.69,1.54c1.51.28,2.76.35,3,.08s-.14-2.76-.56-5.47a42.91,42.91,0,0,1-.73-6.66c.05-1.68,1.77-2.35,3.76-2.56a23.79,23.79,0,0,1,4.88.14h.12Z" transform="translate(-12.59 -19.44)"/><path class="cls-2" d="M126.08,166.27a19.27,19.27,0,0,1-3.6,2.74,7.34,7.34,0,0,1-3.67,1.09,5.36,5.36,0,0,1-3.41-1,9.93,9.93,0,0,1-2.29-2.7l-5.92-9.3-12.3,13.65a1,1,0,0,1-.53.15.94.94,0,0,1-.53-.15l-3.07-3.3a.5.5,0,0,1-.22-.45.7.7,0,0,1,.22-.52L103.89,152l-5.56-8.63A6.21,6.21,0,0,0,97,141.56a2.14,2.14,0,0,0-1.31-.49A4.15,4.15,0,0,0,93,142.2a.81.81,0,0,1-.45.15.71.71,0,0,1-.6-.3l-1.73-2.33a.53.53,0,0,0-.07-.22v-.23a.72.72,0,0,1,.15-.52,18.85,18.85,0,0,1,3.6-2.74,7.27,7.27,0,0,1,3.67-1.09,4.89,4.89,0,0,1,3.19.94,12.78,12.78,0,0,1,2.37,2.66l.07.15,5.25,8.18,11.25-12.53a.91.91,0,0,1,.52-.15.94.94,0,0,1,.53.15l3.07,3.3a.51.51,0,0,1,.23.45.74.74,0,0,1-.23.53L111.76,152l6.22,9.53c1.06,1.6,2,2.4,2.78,2.4a3.8,3.8,0,0,0,2.63-1.13.7.7,0,0,1,.52-.22.63.63,0,0,1,.53.37l1.72,2.4Z" transform="translate(-12.59 -19.44)"/><path class="cls-2" d="M157.92,165.93q-4.6,5.07-12.64,5.07t-12.63-5.07Q128,160.88,128,152.55t4.62-13.43q4.6-5,12.63-5t12.64,5q4.62,5,4.61,13.43T157.92,165.93Zm-5.29-22.53a9.18,9.18,0,0,0-14.7,0,17.55,17.55,0,0,0,0,18.22,9.18,9.18,0,0,0,14.7,0,17.55,17.55,0,0,0,0-18.22Z" transform="translate(-12.59 -19.44)"/><path class="cls-2" d="M192.61,141.67c-.1.35-.3.53-.6.53a.61.61,0,0,1-.45-.15,6.71,6.71,0,0,0-1.76-.94,7,7,0,0,0-2.52-.41,6,6,0,0,0-5.17,3,18.29,18.29,0,0,0-2.36,5.43,24.58,24.58,0,0,0-.87,6.49v13.73c0,.5-.22.75-.67.75h-5.48a.66.66,0,0,1-.75-.75V142.57c0-1.4-.42-2.1-1.27-2.1a3.58,3.58,0,0,0-2.4.9.61.61,0,0,1-.45.15.58.58,0,0,1-.6-.37l-1.5-2.48a.22.22,0,0,0-.08-.15v-.22a.81.81,0,0,1,.23-.6,15.39,15.39,0,0,1,3.52-2,9.26,9.26,0,0,1,3.45-.71q4.73,0,5.4,5.4a11.38,11.38,0,0,1,4.05-4.35,10,10,0,0,1,5.25-1.5,12.64,12.64,0,0,1,3.72.48,9.32,9.32,0,0,1,2.66,1.32.58.58,0,0,1,.37.6l-.07.07v.15Z" transform="translate(-12.59 -19.44)"/><path class="cls-2" d="M233.93,166.8a18.42,18.42,0,0,1-3.41,2.28,9.51,9.51,0,0,1-4.54,1q-3.9,0-6.07-4.13l-7.58-15.07-6,4v14.4a.66.66,0,0,1-.75.75H200a.66.66,0,0,1-.75-.75v-49.2c0-1.4-.43-2.1-1.28-2.1a4.09,4.09,0,0,0-2.47,1,.61.61,0,0,1-.45.15.67.67,0,0,1-.6-.37l-1.58-2.55a.21.21,0,0,0-.07-.15v-.23a.71.71,0,0,1,.3-.6,15.72,15.72,0,0,1,3.64-2,9.77,9.77,0,0,1,3.56-.75,5.61,5.61,0,0,1,4.57,1.8,6.89,6.89,0,0,1,1.5,4.57v29.25l19.88-14,.22-.08h.15a.8.8,0,0,1,.68.3l2.47,3.9a.62.62,0,0,0,.08.23v.22a.74.74,0,0,1-.23.53l-11.32,7.57,8.47,16a4,4,0,0,0,.94,1.35,1.81,1.81,0,0,0,1.09.3,2.14,2.14,0,0,0,1.12-.38q.6-.37,1.35-.9a.81.81,0,0,1,.45-.15.54.54,0,0,1,.53.3l1.72,2.48Z" transform="translate(-12.59 -19.44)"/><path class="cls-2" d="M242.63,155.25a11.86,11.86,0,0,0,2.93,6.67,9.56,9.56,0,0,0,3.26,2.36,10.66,10.66,0,0,0,4.46.87,21,21,0,0,0,5.7-.72,22.53,22.53,0,0,0,4.65-1.83.62.62,0,0,0,.23-.08H264c.45,0,.67.25.67.75v4.65a.65.65,0,0,1-.37.68,25,25,0,0,1-4.95,1.76,30.12,30.12,0,0,1-6.83.64q-8.33,0-12.82-5.22t-4.5-13.23q0-8.33,4.5-13.39t12.15-5.06q7.42,0,11.43,4.65t4,13.35v2.4a.66.66,0,0,1-.75.75Zm2.93-13a14.57,14.57,0,0,0-2.85,7.47h17.17q-.22-4.87-2.25-7.47a7.16,7.16,0,0,0-6-2.58A7.5,7.5,0,0,0,245.56,142.23Z" transform="translate(-12.59 -19.44)"/><path class="cls-2" d="M280.51,155.25a11.85,11.85,0,0,0,2.92,6.67,9.6,9.6,0,0,0,3.27,2.36,10.66,10.66,0,0,0,4.46.87,21,21,0,0,0,5.7-.72,22.53,22.53,0,0,0,4.65-1.83.59.59,0,0,0,.22-.08h.15c.45,0,.68.25.68.75v4.65a.65.65,0,0,1-.38.68,25,25,0,0,1-4.95,1.76,30,30,0,0,1-6.82.64q-8.32,0-12.83-5.22t-4.5-13.23q0-8.33,4.5-13.39t12.15-5.06q7.42,0,11.44,4.65t4,13.35v2.4a.66.66,0,0,1-.75.75Zm2.92-13a14.57,14.57,0,0,0-2.85,7.47h17.18q-.22-4.87-2.25-7.47a7.16,7.16,0,0,0-6-2.58A7.52,7.52,0,0,0,283.43,142.23Z" transform="translate(-12.59 -19.44)"/><path class="cls-3" d="M340.12,130.72h1.76q5.79,0,7,4.1l.15,1.17v.15q0,4.43-6.89,6l-1.32.14-.44-.58v-.3a5.87,5.87,0,0,0,2-4.1v-.58q-.36-2.79-3.51-2.79h-1.76a7,7,0,0,0-6.59,4l-.15.88v.73q0,3.48,5.42,6.74,5.64,4.47,7.33,6.15a10.8,10.8,0,0,1,2.63,6.44c0,1.88-.92,4-2.78,6.3v.3q7.77-1.32,21.83-23.88a14.64,14.64,0,0,1,2.05-3.08h.14c.27,0,.47.49.59,1.47q0,5.09-12.6,19.77-6.74,6.78-10.1,7.91a23.78,23.78,0,0,1-7.77,2.35,26.26,26.26,0,0,1-9.67,2.34h-2q-6.37,0-9.52-3.81a5.47,5.47,0,0,1-.88-2.63q0-3.27,4-4.84a6.74,6.74,0,0,1,3.07-.58c2.15.22,3.23.56,3.23,1v.15c-1.37,1.29-2.05,2.41-2.05,3.37v1.17q0,3.22,5.56,3.22h.44q6.33,0,8.94-4.54l.44-2.2v-.44c0-2.66-1.57-5.05-4.69-7.17l-7.91-6.45a8,8,0,0,1-2.93-5.86q0-8.39,13.62-11.72Z" transform="translate(-12.59 -19.44)"/><path class="cls-3" d="M368.56,131.45a1.15,1.15,0,0,1,.88,1.17q-9.81,29.31-9.82,32.23v1.32c0,1.56.74,2.34,2.2,2.34h.88q5.82,0,23.88-25.63l2.34-3.22h.15c.29,0,.44.43.44,1.17v.58q0,3.48-11.87,18.17-11.36,12.73-18.16,12.74h-1.17a5.86,5.86,0,0,1-6-4.39l-.29-2.64q0-3.18,8.49-28.56.74-4.54,4.4-4.55A16,16,0,0,1,368.56,131.45Zm-.73-19.19h.29q6.15,2.89,6.15,4.4-.25,5.27-2.34,5.27h-.44a11.11,11.11,0,0,1-6.45-2.49,1.77,1.77,0,0,1-.58-1.17v-.15q.07-1.61,2.78-5.42Z" transform="translate(-12.59 -19.44)"/><path class="cls-3" d="M402.13,131.6h2.78q9.09,0,9.08,3.51,0,3.12-10.54,37.21h.29q3.08-1.73,13.18-12.3,9.68-11.43,15.53-19.63h.29l.3.29v1.17q0,4-12.31,17.73-.94,1.93-12.3,12.74L402.57,177a59.5,59.5,0,0,1-4.25,11.86q-6.48,12.39-18.16,17c-.93,0-1.47-1.13-1.62-3.37v-1q0-13.51,17.29-25.05,0-5.05,4.83-19.63-9.59,15.39-17,15.38h-.88q-5.93,0-8.35-7a15.14,15.14,0,0,1-.58-4.1v-1.17q0-13.8,16.4-24.76Q396.93,131.6,402.13,131.6Zm-20.66,31.79c0,3,1.22,4.54,3.67,4.54h.44q6.92,0,19-25.35c1.76-3.8,2.63-5.9,2.63-6.29a4.73,4.73,0,0,0-3.8-1.62h-1.18q-7.22,0-17.87,17.88A25.5,25.5,0,0,0,381.47,163.39Zm2.93,33v1.76c0,1.37.15,2.05.44,2.05q5.9-3,9.08-12.45a26.54,26.54,0,0,0,1.62-7h-.15Q384.41,187.92,384.4,196.34Z" transform="translate(-12.59 -19.44)"/><path class="cls-3" d="M454.3,131h.88q4.14,0,6,5.13l.15,1.76q0,3.91-5.86,20.21-1.91,5.69-1.9,7v.59c0,.88.58,1.32,1.75,1.32h.15q4.21,0,18.6-19.05l6-8.05h.15c.26,0,.46.54.58,1.61Q480.3,145.8,464.7,164q-8,8.35-12.16,8.35h-.88q-4.29,0-6.15-5.42l-.15-1.46v-.15q0-3.37,7.91-27.25v-.44c0-.87-.58-1.31-1.75-1.31q-5.68.28-20.81,23.43a100.66,100.66,0,0,0-5.27,10.55q-1.32,1.75-7.18,1.76a1.68,1.68,0,0,1-.88-.73v-1.18q8.94-30.21,11-35.74a4.93,4.93,0,0,1,4.25-2.49l3.08-.73q1.17.18,1.17,1.17-7.47,23.55-7.47,24.17Q446.61,131,454.3,131Z" transform="translate(-12.59 -19.44)"/></svg>